<?xml version="1.0" encoding="UTF-8" standalone="no"?>
<!DOCTYPE svg PUBLIC "-//W3C//DTD SVG 1.1//EN"
 "http://www.w3.org/Graphics/SVG/1.1/DTD/svg11.dtd">
<!-- Generated by graphviz version 12.1.2 (20240928.0832)
 -->
<!-- Title: public.posts Pages: 1 -->
<svg width="809pt" height="1160pt"
 viewBox="0.00 0.00 809.31 1160.40" xmlns="http://www.w3.org/2000/svg" xmlns:xlink="http://www.w3.org/1999/xlink">
<g id="graph0" class="graph" transform="scale(1 1) rotate(0) translate(4 1156.4)">
<title>public.posts</title>
<polygon fill="white" stroke="none" points="-4,4 -4,-1156.4 805.31,-1156.4 805.31,4 -4,4"/>
<!-- public.posts -->
<g id="node1" class="node">
<title>public.posts</title>
<polygon fill="#efefef" stroke="none" points="145.29,-727.8 145.29,-763.4 418.44,-763.4 418.44,-727.8 145.29,-727.8"/>
<polygon fill="none" stroke="black" points="145.29,-727.8 145.29,-763.4 418.44,-763.4 418.44,-727.8 145.29,-727.8"/>
<text text-anchor="start" x="176.37" y="-741.2" font-family="Arial Bold" font-size="18.00">public.posts</text>
<text text-anchor="start" x="262.87" y="-741.2" font-family="Arial" font-size="14.00">    </text>
<text text-anchor="start" x="293.99" y="-741.2" font-family="Arial" font-size="14.00" fill="#666666">[BASE TABLE]</text>
<polygon fill="none" stroke="black" points="145.29,-697 145.29,-727.8 418.44,-727.8 418.44,-697 145.29,-697"/>
<text text-anchor="start" x="152.29" y="-709.2" font-family="Arial" font-size="14.00">post_id </text>
<text text-anchor="start" x="201.33" y="-709.2" font-family="Arial" font-size="14.00" fill="#666666">[integer]</text>
<polygon fill="none" stroke="black" points="145.29,-666.2 145.29,-697 418.44,-697 418.44,-666.2 145.29,-666.2"/>
<text text-anchor="start" x="152.29" y="-678.4" font-family="Arial" font-size="14.00">title </text>
<text text-anchor="start" x="177.97" y="-678.4" font-family="Arial" font-size="14.00" fill="#666666">[varchar(255)]</text>
<polygon fill="none" stroke="black" points="145.29,-635.4 145.29,-666.2 418.44,-666.2 418.44,-635.4 145.29,-635.4"/>
<text text-anchor="start" x="152.29" y="-647.6" font-family="Arial" font-size="14.00">content </text>
<text text-anchor="start" x="202.11" y="-647.6" font-family="Arial" font-size="14.00" fill="#666666">[text]</text>
<polygon fill="none" stroke="black" points="145.29,-604.6 145.29,-635.4 418.44,-635.4 418.44,-604.6 145.29,-604.6"/>
<text text-anchor="start" x="152.29" y="-616.8" font-family="Arial" font-size="14.00">author_id </text>
<text text-anchor="start" x="214.56" y="-616.8" font-family="Arial" font-size="14.00" fill="#666666">[integer]</text>
<polygon fill="none" stroke="black" points="145.29,-573.8 145.29,-604.6 418.44,-604.6 418.44,-573.8 145.29,-573.8"/>
<text text-anchor="start" x="152.29" y="-586" font-family="Arial" font-size="14.00">published </text>
<text text-anchor="start" x="216.12" y="-586" font-family="Arial" font-size="14.00" fill="#666666">[boolean]</text>
<polygon fill="none" stroke="black" points="145.29,-543 145.29,-573.8 418.44,-573.8 418.44,-543 145.29,-543"/>
<text text-anchor="start" x="152.29" y="-555.2" font-family="Arial" font-size="14.00">view_count </text>
<text text-anchor="start" x="226.23" y="-555.2" font-family="Arial" font-size="14.00" fill="#666666">[integer]</text>
<polygon fill="none" stroke="black" points="145.29,-512.2 145.29,-543 418.44,-543 418.44,-512.2 145.29,-512.2"/>
<text text-anchor="start" x="152.29" y="-524.4" font-family="Arial" font-size="14.00">created_at </text>
<text text-anchor="start" x="222.34" y="-524.4" font-family="Arial" font-size="14.00" fill="#666666">[timestamp without time zone]</text>
<polygon fill="none" stroke="black" points="145.29,-481.4 145.29,-512.2 418.44,-512.2 418.44,-481.4 145.29,-481.4"/>
<text text-anchor="start" x="152.29" y="-493.6" font-family="Arial" font-size="14.00">updated_at </text>
<text text-anchor="start" x="226.25" y="-493.6" font-family="Arial" font-size="14.00" fill="#666666">[timestamp without time zone]</text>
<polygon fill="none" stroke="black" points="145.29,-450.6 145.29,-481.4 418.44,-481.4 418.44,-450.6 145.29,-450.6"/>
<text text-anchor="start" x="152.29" y="-462.8" font-family="Arial" font-size="14.00">created_by </text>
<text text-anchor="start" x="225.45" y="-462.8" font-family="Arial" font-size="14.00" fill="#666666">[integer]</text>
<polygon fill="none" stroke="black" points="145.29,-419.8 145.29,-450.6 418.44,-450.6 418.44,-419.8 145.29,-419.8"/>
<text text-anchor="start" x="152.29" y="-432" font-family="Arial" font-size="14.00">updated_by </text>
<text text-anchor="start" x="229.36" y="-432" font-family="Arial" font-size="14.00" fill="#666666">[integer]</text>
<polygon fill="none" stroke="black" stroke-width="3" points="143.79,-418.3 143.79,-764.9 419.94,-764.9 419.94,-418.3 143.79,-418.3"/>
</g>
<!-- public.users -->
<g id="node3" class="node">
<title>public.users</title>
<polygon fill="#efefef" stroke="none" points="145.29,-258.8 145.29,-294.4 418.44,-294.4 418.44,-258.8 145.29,-258.8"/>
<polygon fill="none" stroke="black" points="145.29,-258.8 145.29,-294.4 418.44,-294.4 418.44,-258.8 145.29,-258.8"/>
<text text-anchor="start" x="176.38" y="-272.2" font-family="Arial Bold" font-size="18.00">public.users</text>
<text text-anchor="start" x="262.86" y="-272.2" font-family="Arial" font-size="14.00">    </text>
<text text-anchor="start" x="293.98" y="-272.2" font-family="Arial" font-size="14.00" fill="#666666">[BASE TABLE]</text>
<polygon fill="none" stroke="black" points="145.29,-228 145.29,-258.8 418.44,-258.8 418.44,-228 145.29,-228"/>
<text text-anchor="start" x="152.29" y="-240.2" font-family="Arial" font-size="14.00">user_id </text>
<text text-anchor="start" x="202.1" y="-240.2" font-family="Arial" font-size="14.00" fill="#666666">[integer]</text>
<polygon fill="none" stroke="black" points="145.29,-197.2 145.29,-228 418.44,-228 418.44,-197.2 145.29,-197.2"/>
<text text-anchor="start" x="152.29" y="-209.4" font-family="Arial" font-size="14.00">username </text>
<text text-anchor="start" x="218.44" y="-209.4" font-family="Arial" font-size="14.00" fill="#666666">[varchar(50)]</text>
<polygon fill="none" stroke="black" points="145.29,-166.4 145.29,-197.2 418.44,-197.2 418.44,-166.4 145.29,-166.4"/>
<text text-anchor="start" x="152.29" y="-178.6" font-family="Arial" font-size="14.00">email </text>
<text text-anchor="start" x="189.64" y="-178.6" font-family="Arial" font-size="14.00" fill="#666666">[varchar(255)]</text>
<polygon fill="none" stroke="black" points="145.29,-135.6 145.29,-166.4 418.44,-166.4 418.44,-135.6 145.29,-135.6"/>
<text text-anchor="start" x="152.29" y="-147.8" font-family="Arial" font-size="14.00">full_name </text>
<text text-anchor="start" x="216.89" y="-147.8" font-family="Arial" font-size="14.00" fill="#666666">[varchar(255)]</text>
<polygon fill="none" stroke="black" points="145.29,-104.8 145.29,-135.6 418.44,-135.6 418.44,-104.8 145.29,-104.8"/>
<text text-anchor="start" x="152.29" y="-117" font-family="Arial" font-size="14.00">bio </text>
<text text-anchor="start" x="174.87" y="-117" font-family="Arial" font-size="14.00" fill="#666666">[text]</text>
<polygon fill="none" stroke="black" points="145.29,-74 145.29,-104.8 418.44,-104.8 418.44,-74 145.29,-74"/>
<text text-anchor="start" x="152.29" y="-86.2" font-family="Arial" font-size="14.00">created_at </text>
<text text-anchor="start" x="222.34" y="-86.2" font-family="Arial" font-size="14.00" fill="#666666">[timestamp without time zone]</text>
<polygon fill="none" stroke="black" points="145.29,-43.2 145.29,-74 418.44,-74 418.44,-43.2 145.29,-43.2"/>
<text text-anchor="start" x="152.29" y="-55.4" font-family="Arial" font-size="14.00">updated_at </text>
<text text-anchor="start" x="226.25" y="-55.4" font-family="Arial" font-size="14.00" fill="#666666">[timestamp without time zone]</text>
</g>
<!-- public.posts&#45;&gt;public.users -->
<g id="edge2" class="edge">
<title>public.posts:author_id&#45;&gt;public.users:user_id</title>
<path fill="none" stroke="black" d="M429.31,-618.15C502.99,-589.74 499.69,-243.4 419.44,-243.4"/>
<polygon fill="black" stroke="black" points="429.6,-618.1 418.94,-615.52 424.35,-619.08 420.1,-619.88 420.1,-619.88 420.1,-619.88 424.35,-619.08 420.59,-624.36 429.6,-618.1"/>
<text text-anchor="start" x="426.44" y="-630" font-family="Arial" font-size="10.00">FOREIGN KEY (author_id) REFERENCES users(user_id) ON DELETE CASCADE</text>
</g>
<!-- public.posts&#45;&gt;public.users -->
<g id="edge3" class="edge">
<title>public.posts:created_by&#45;&gt;public.users:user_id</title>
<path fill="none" stroke="black" d="M429.77,-465.15C518.24,-450.2 514.8,-243.4 419.44,-243.4"/>
<polygon fill="black" stroke="black" points="429.74,-465.15 419.4,-461.49 424.42,-465.59 420.1,-465.95 420.1,-465.95 420.1,-465.95 424.42,-465.59 420.14,-470.46 429.74,-465.15"/>
<text text-anchor="start" x="426.44" y="-476" font-family="Arial" font-size="10.00">FOREIGN KEY (created_by) REFERENCES users(user_id)</text>
</g>
<!-- public.posts&#45;&gt;public.users -->
<g id="edge4" class="edge">
<title>public.posts:updated_by&#45;&gt;public.users:user_id</title>
<path fill="none" stroke="black" d="M282.69,-408.61C292.37,-353.21 385.06,-395.57 418.44,-337.6 439.33,-301.32 461.31,-243.4 419.44,-243.4"/>
<polygon fill="black" stroke="black" points="282.7,-408.5 277.41,-418.11 282.27,-413.82 281.92,-418.13 281.92,-418.13 281.92,-418.13 282.27,-413.82 286.38,-418.83 282.7,-408.5"/>
<text text-anchor="start" x="7" y="-428.8" font-family="Arial" font-size="10.00">FOREIGN KEY (updated_by) REFERENCES users(user_id)</text>
</g>
<!-- public.comments -->
<g id="node2" class="node">
<title>public.comments</title>
<polygon fill="#efefef" stroke="none" points="145.29,-1073.6 145.29,-1109.2 418.44,-1109.2 418.44,-1073.6 145.29,-1073.6"/>
<polygon fill="none" stroke="black" points="145.29,-1073.6 145.29,-1109.2 418.44,-1109.2 418.44,-1073.6 145.29,-1073.6"/>
<text text-anchor="start" x="157.88" y="-1087" font-family="Arial Bold" font-size="18.00">public.comments</text>
<text text-anchor="start" x="281.36" y="-1087" font-family="Arial" font-size="14.00">    </text>
<text text-anchor="start" x="312.48" y="-1087" font-family="Arial" font-size="14.00" fill="#666666">[BASE TABLE]</text>
<polygon fill="none" stroke="black" points="145.29,-1042.8 145.29,-1073.6 418.44,-1073.6 418.44,-1042.8 145.29,-1042.8"/>
<text text-anchor="start" x="152.29" y="-1055" font-family="Arial" font-size="14.00">comment_id </text>
<text text-anchor="start" x="232.44" y="-1055" font-family="Arial" font-size="14.00" fill="#666666">[integer]</text>
<polygon fill="none" stroke="black" points="145.29,-1012 145.29,-1042.8 418.44,-1042.8 418.44,-1012 145.29,-1012"/>
<text text-anchor="start" x="152.29" y="-1024.2" font-family="Arial" font-size="14.00">post_id </text>
<text text-anchor="start" x="201.33" y="-1024.2" font-family="Arial" font-size="14.00" fill="#666666">[integer]</text>
<polygon fill="none" stroke="black" points="145.29,-981.2 145.29,-1012 418.44,-1012 418.44,-981.2 145.29,-981.2"/>
<text text-anchor="start" x="152.29" y="-993.4" font-family="Arial" font-size="14.00">author_id </text>
<text text-anchor="start" x="214.56" y="-993.4" font-family="Arial" font-size="14.00" fill="#666666">[integer]</text>
<polygon fill="none" stroke="black" points="145.29,-950.4 145.29,-981.2 418.44,-981.2 418.44,-950.4 145.29,-950.4"/>
<text text-anchor="start" x="152.29" y="-962.6" font-family="Arial" font-size="14.00">content </text>
<text text-anchor="start" x="202.11" y="-962.6" font-family="Arial" font-size="14.00" fill="#666666">[text]</text>
<polygon fill="none" stroke="black" points="145.29,-919.6 145.29,-950.4 418.44,-950.4 418.44,-919.6 145.29,-919.6"/>
<text text-anchor="start" x="152.29" y="-931.8" font-family="Arial" font-size="14.00">created_at </text>
<text text-anchor="start" x="222.34" y="-931.8" font-family="Arial" font-size="14.00" fill="#666666">[timestamp without time zone]</text>
<polygon fill="none" stroke="black" points="145.29,-888.8 145.29,-919.6 418.44,-919.6 418.44,-888.8 145.29,-888.8"/>
<text text-anchor="start" x="152.29" y="-901" font-family="Arial" font-size="14.00">updated_at </text>
<text text-anchor="start" x="226.25" y="-901" font-family="Arial" font-size="14.00" fill="#666666">[timestamp without time zone]</text>
</g>
<!-- public.comments&#45;&gt;public.posts -->
<g id="edge1" class="edge">
<title>public.comments:post_id&#45;&gt;public.posts:post_id</title>
<path fill="none" stroke="black" d="M429.56,-1025.05C489.26,-996.22 485.88,-712.4 419.44,-712.4"/>
<polygon fill="black" stroke="black" points="429.5,-1025.06 418.74,-1022.94 424.31,-1026.27 420.09,-1027.25 420.09,-1027.25 420.09,-1027.25 424.31,-1026.27 420.78,-1031.71 429.5,-1025.06"/>
<text text-anchor="start" x="426.44" y="-1037.4" font-family="Arial" font-size="10.00">FOREIGN KEY (post_id) REFERENCES posts(post_id) ON DELETE CASCADE</text>
</g>
</g>
</svg>
