<?xml version="1.0" encoding="UTF-8" standalone="no"?>
<!DOCTYPE svg PUBLIC "-//W3C//DTD SVG 1.1//EN"
 "http://www.w3.org/Graphics/SVG/1.1/DTD/svg11.dtd">
<!-- Generated by graphviz version 12.1.2 (20240928.0832)
 -->
<!-- Title: public.comments Pages: 1 -->
<svg width="1036pt" height="787pt"
 viewBox="0.00 0.00 1036.34 786.80" xmlns="http://www.w3.org/2000/svg" xmlns:xlink="http://www.w3.org/1999/xlink">
<g id="graph0" class="graph" transform="scale(1 1) rotate(0) translate(4 782.8)">
<title>public.comments</title>
<polygon fill="white" stroke="none" points="-4,4 -4,-782.8 1032.34,-782.8 1032.34,4 -4,4"/>
<!-- public.comments -->
<g id="node1" class="node">
<title>public.comments</title>
<polygon fill="#efefef" stroke="none" points="372.32,-697 372.32,-732.6 645.46,-732.6 645.46,-697 372.32,-697"/>
<polygon fill="none" stroke="black" points="372.32,-697 372.32,-732.6 645.46,-732.6 645.46,-697 372.32,-697"/>
<text text-anchor="start" x="384.91" y="-710.4" font-family="Arial Bold" font-size="18.00">public.comments</text>
<text text-anchor="start" x="508.39" y="-710.4" font-family="Arial" font-size="14.00">    </text>
<text text-anchor="start" x="539.5" y="-710.4" font-family="Arial" font-size="14.00" fill="#666666">[BASE TABLE]</text>
<polygon fill="none" stroke="black" points="372.32,-666.2 372.32,-697 645.46,-697 645.46,-666.2 372.32,-666.2"/>
<text text-anchor="start" x="379.32" y="-678.4" font-family="Arial" font-size="14.00">comment_id </text>
<text text-anchor="start" x="459.46" y="-678.4" font-family="Arial" font-size="14.00" fill="#666666">[integer]</text>
<polygon fill="none" stroke="black" points="372.32,-635.4 372.32,-666.2 645.46,-666.2 645.46,-635.4 372.32,-635.4"/>
<text text-anchor="start" x="379.32" y="-647.6" font-family="Arial" font-size="14.00">post_id </text>
<text text-anchor="start" x="428.35" y="-647.6" font-family="Arial" font-size="14.00" fill="#666666">[integer]</text>
<polygon fill="none" stroke="black" points="372.32,-604.6 372.32,-635.4 645.46,-635.4 645.46,-604.6 372.32,-604.6"/>
<text text-anchor="start" x="379.32" y="-616.8" font-family="Arial" font-size="14.00">author_id </text>
<text text-anchor="start" x="441.59" y="-616.8" font-family="Arial" font-size="14.00" fill="#666666">[integer]</text>
<polygon fill="none" stroke="black" points="372.32,-573.8 372.32,-604.6 645.46,-604.6 645.46,-573.8 372.32,-573.8"/>
<text text-anchor="start" x="379.32" y="-586" font-family="Arial" font-size="14.00">content </text>
<text text-anchor="start" x="429.13" y="-586" font-family="Arial" font-size="14.00" fill="#666666">[text]</text>
<polygon fill="none" stroke="black" points="372.32,-543 372.32,-573.8 645.46,-573.8 645.46,-543 372.32,-543"/>
<text text-anchor="start" x="379.32" y="-555.2" font-family="Arial" font-size="14.00">created_at </text>
<text text-anchor="start" x="449.37" y="-555.2" font-family="Arial" font-size="14.00" fill="#666666">[timestamp without time zone]</text>
<polygon fill="none" stroke="black" points="372.32,-512.2 372.32,-543 645.46,-543 645.46,-512.2 372.32,-512.2"/>
<text text-anchor="start" x="379.32" y="-524.4" font-family="Arial" font-size="14.00">updated_at </text>
<text text-anchor="start" x="453.28" y="-524.4" font-family="Arial" font-size="14.00" fill="#666666">[timestamp without time zone]</text>
<polygon fill="none" stroke="black" stroke-width="3" points="370.82,-510.7 370.82,-734.1 646.96,-734.1 646.96,-510.7 370.82,-510.7"/>
</g>
<!-- public.posts -->
<g id="node2" class="node">
<title>public.posts</title>
<polygon fill="#efefef" stroke="none" points="183.32,-351.2 183.32,-386.8 456.46,-386.8 456.46,-351.2 183.32,-351.2"/>
<polygon fill="none" stroke="black" points="183.32,-351.2 183.32,-386.8 456.46,-386.8 456.46,-351.2 183.32,-351.2"/>
<text text-anchor="start" x="214.4" y="-364.6" font-family="Arial Bold" font-size="18.00">public.posts</text>
<text text-anchor="start" x="300.9" y="-364.6" font-family="Arial" font-size="14.00">    </text>
<text text-anchor="start" x="332.01" y="-364.6" font-family="Arial" font-size="14.00" fill="#666666">[BASE TABLE]</text>
<polygon fill="none" stroke="black" points="183.32,-320.4 183.32,-351.2 456.46,-351.2 456.46,-320.4 183.32,-320.4"/>
<text text-anchor="start" x="190.32" y="-332.6" font-family="Arial" font-size="14.00">post_id </text>
<text text-anchor="start" x="239.35" y="-332.6" font-family="Arial" font-size="14.00" fill="#666666">[integer]</text>
<polygon fill="none" stroke="black" points="183.32,-289.6 183.32,-320.4 456.46,-320.4 456.46,-289.6 183.32,-289.6"/>
<text text-anchor="start" x="190.32" y="-301.8" font-family="Arial" font-size="14.00">title </text>
<text text-anchor="start" x="216" y="-301.8" font-family="Arial" font-size="14.00" fill="#666666">[varchar(255)]</text>
<polygon fill="none" stroke="black" points="183.32,-258.8 183.32,-289.6 456.46,-289.6 456.46,-258.8 183.32,-258.8"/>
<text text-anchor="start" x="190.32" y="-271" font-family="Arial" font-size="14.00">content </text>
<text text-anchor="start" x="240.13" y="-271" font-family="Arial" font-size="14.00" fill="#666666">[text]</text>
<polygon fill="none" stroke="black" points="183.32,-228 183.32,-258.8 456.46,-258.8 456.46,-228 183.32,-228"/>
<text text-anchor="start" x="190.32" y="-240.2" font-family="Arial" font-size="14.00">author_id </text>
<text text-anchor="start" x="252.59" y="-240.2" font-family="Arial" font-size="14.00" fill="#666666">[integer]</text>
<polygon fill="none" stroke="black" points="183.32,-197.2 183.32,-228 456.46,-228 456.46,-197.2 183.32,-197.2"/>
<text text-anchor="start" x="190.32" y="-209.4" font-family="Arial" font-size="14.00">published </text>
<text text-anchor="start" x="254.15" y="-209.4" font-family="Arial" font-size="14.00" fill="#666666">[boolean]</text>
<polygon fill="none" stroke="black" points="183.32,-166.4 183.32,-197.2 456.46,-197.2 456.46,-166.4 183.32,-166.4"/>
<text text-anchor="start" x="190.32" y="-178.6" font-family="Arial" font-size="14.00">view_count </text>
<text text-anchor="start" x="264.25" y="-178.6" font-family="Arial" font-size="14.00" fill="#666666">[integer]</text>
<polygon fill="none" stroke="black" points="183.32,-135.6 183.32,-166.4 456.46,-166.4 456.46,-135.6 183.32,-135.6"/>
<text text-anchor="start" x="190.32" y="-147.8" font-family="Arial" font-size="14.00">created_at </text>
<text text-anchor="start" x="260.37" y="-147.8" font-family="Arial" font-size="14.00" fill="#666666">[timestamp without time zone]</text>
<polygon fill="none" stroke="black" points="183.32,-104.8 183.32,-135.6 456.46,-135.6 456.46,-104.8 183.32,-104.8"/>
<text text-anchor="start" x="190.32" y="-117" font-family="Arial" font-size="14.00">updated_at </text>
<text text-anchor="start" x="264.28" y="-117" font-family="Arial" font-size="14.00" fill="#666666">[timestamp without time zone]</text>
<polygon fill="none" stroke="black" points="183.32,-74 183.32,-104.8 456.46,-104.8 456.46,-74 183.32,-74"/>
<text text-anchor="start" x="190.32" y="-86.2" font-family="Arial" font-size="14.00">created_by </text>
<text text-anchor="start" x="263.48" y="-86.2" font-family="Arial" font-size="14.00" fill="#666666">[integer]</text>
<polygon fill="none" stroke="black" points="183.32,-43.2 183.32,-74 456.46,-74 456.46,-43.2 183.32,-43.2"/>
<text text-anchor="start" x="190.32" y="-55.4" font-family="Arial" font-size="14.00">updated_by </text>
<text text-anchor="start" x="267.39" y="-55.4" font-family="Arial" font-size="14.00" fill="#666666">[integer]</text>
</g>
<!-- public.comments&#45;&gt;public.posts -->
<g id="edge1" class="edge">
<title>public.comments:post_id&#45;&gt;public.posts:post_id</title>
<path fill="none" stroke="black" d="M360.97,-650.11C292.59,-640.44 328.94,-531.36 372.32,-466 394.81,-432.11 433.88,-463.83 456.46,-430 479.71,-395.18 499.33,-335.8 457.46,-335.8"/>
<polygon fill="black" stroke="black" points="361.01,-650.11 370.69,-655.27 366.33,-650.47 370.65,-650.76 370.65,-650.76 370.65,-650.76 366.33,-650.47 371.28,-646.29 361.01,-650.11"/>
<text text-anchor="start" x="7" y="-660.8" font-family="Arial" font-size="10.00">FOREIGN KEY (post_id) REFERENCES posts(post_id) ON DELETE CASCADE</text>
</g>
<!-- public.users -->
<g id="node3" class="node">
<title>public.users</title>
<polygon fill="#efefef" stroke="none" points="561.32,-305 561.32,-340.6 834.46,-340.6 834.46,-305 561.32,-305"/>
<polygon fill="none" stroke="black" points="561.32,-305 561.32,-340.6 834.46,-340.6 834.46,-305 561.32,-305"/>
<text text-anchor="start" x="592.4" y="-318.4" font-family="Arial Bold" font-size="18.00">public.users</text>
<text text-anchor="start" x="678.89" y="-318.4" font-family="Arial" font-size="14.00">    </text>
<text text-anchor="start" x="710.01" y="-318.4" font-family="Arial" font-size="14.00" fill="#666666">[BASE TABLE]</text>
<polygon fill="none" stroke="black" points="561.32,-274.2 561.32,-305 834.46,-305 834.46,-274.2 561.32,-274.2"/>
<text text-anchor="start" x="568.32" y="-286.4" font-family="Arial" font-size="14.00">user_id </text>
<text text-anchor="start" x="618.13" y="-286.4" font-family="Arial" font-size="14.00" fill="#666666">[integer]</text>
<polygon fill="none" stroke="black" points="561.32,-243.4 561.32,-274.2 834.46,-274.2 834.46,-243.4 561.32,-243.4"/>
<text text-anchor="start" x="568.32" y="-255.6" font-family="Arial" font-size="14.00">username </text>
<text text-anchor="start" x="634.46" y="-255.6" font-family="Arial" font-size="14.00" fill="#666666">[varchar(50)]</text>
<polygon fill="none" stroke="black" points="561.32,-212.6 561.32,-243.4 834.46,-243.4 834.46,-212.6 561.32,-212.6"/>
<text text-anchor="start" x="568.32" y="-224.8" font-family="Arial" font-size="14.00">email </text>
<text text-anchor="start" x="605.66" y="-224.8" font-family="Arial" font-size="14.00" fill="#666666">[varchar(255)]</text>
<polygon fill="none" stroke="black" points="561.32,-181.8 561.32,-212.6 834.46,-212.6 834.46,-181.8 561.32,-181.8"/>
<text text-anchor="start" x="568.32" y="-194" font-family="Arial" font-size="14.00">full_name </text>
<text text-anchor="start" x="632.91" y="-194" font-family="Arial" font-size="14.00" fill="#666666">[varchar(255)]</text>
<polygon fill="none" stroke="black" points="561.32,-151 561.32,-181.8 834.46,-181.8 834.46,-151 561.32,-151"/>
<text text-anchor="start" x="568.32" y="-163.2" font-family="Arial" font-size="14.00">bio </text>
<text text-anchor="start" x="590.89" y="-163.2" font-family="Arial" font-size="14.00" fill="#666666">[text]</text>
<polygon fill="none" stroke="black" points="561.32,-120.2 561.32,-151 834.46,-151 834.46,-120.2 561.32,-120.2"/>
<text text-anchor="start" x="568.32" y="-132.4" font-family="Arial" font-size="14.00">created_at </text>
<text text-anchor="start" x="638.37" y="-132.4" font-family="Arial" font-size="14.00" fill="#666666">[timestamp without time zone]</text>
<polygon fill="none" stroke="black" points="561.32,-89.4 561.32,-120.2 834.46,-120.2 834.46,-89.4 561.32,-89.4"/>
<text text-anchor="start" x="568.32" y="-101.6" font-family="Arial" font-size="14.00">updated_at </text>
<text text-anchor="start" x="642.28" y="-101.6" font-family="Arial" font-size="14.00" fill="#666666">[timestamp without time zone]</text>
</g>
<!-- public.comments&#45;&gt;public.users -->
<g id="edge2" class="edge">
<title>public.comments:author_id&#45;&gt;public.users:user_id</title>
<path fill="none" stroke="black" d="M656.6,-619.87C868.77,-614.08 577.88,-422.54 561.32,-383.8 544.87,-345.3 518.45,-289.6 560.32,-289.6"/>
<polygon fill="black" stroke="black" points="656.8,-619.86 646.74,-615.5 651.46,-619.93 647.13,-619.99 647.13,-619.99 647.13,-619.99 651.46,-619.93 646.86,-624.5 656.8,-619.86"/>
<text text-anchor="start" x="653.46" y="-630" font-family="Arial" font-size="10.00">FOREIGN KEY (author_id) REFERENCES users(user_id) ON DELETE CASCADE</text>
</g>
</g>
</svg>
