<?xml version="1.0" encoding="UTF-8" standalone="no"?>
<!DOCTYPE svg PUBLIC "-//W3C//DTD SVG 1.1//EN"
 "http://www.w3.org/Graphics/SVG/1.1/DTD/svg11.dtd">
<!-- Generated by graphviz version 12.1.2 (20240928.0832)
 -->
<!-- Title: public.users Pages: 1 -->
<svg width="912pt" height="818pt"
 viewBox="0.00 0.00 912.17 817.60" xmlns="http://www.w3.org/2000/svg" xmlns:xlink="http://www.w3.org/1999/xlink">
<g id="graph0" class="graph" transform="scale(1 1) rotate(0) translate(4 813.6)">
<title>public.users</title>
<polygon fill="white" stroke="none" points="-4,4 -4,-813.6 908.17,-813.6 908.17,4 -4,4"/>
<!-- public.users -->
<g id="node1" class="node">
<title>public.users</title>
<polygon fill="#efefef" stroke="none" points="145.29,-261.8 145.29,-297.4 418.44,-297.4 418.44,-261.8 145.29,-261.8"/>
<polygon fill="none" stroke="black" points="145.29,-261.8 145.29,-297.4 418.44,-297.4 418.44,-261.8 145.29,-261.8"/>
<text text-anchor="start" x="176.38" y="-275.2" font-family="Arial Bold" font-size="18.00">public.users</text>
<text text-anchor="start" x="262.86" y="-275.2" font-family="Arial" font-size="14.00">    </text>
<text text-anchor="start" x="293.98" y="-275.2" font-family="Arial" font-size="14.00" fill="#666666">[BASE TABLE]</text>
<polygon fill="none" stroke="black" points="145.29,-231 145.29,-261.8 418.44,-261.8 418.44,-231 145.29,-231"/>
<text text-anchor="start" x="152.29" y="-243.2" font-family="Arial" font-size="14.00">user_id </text>
<text text-anchor="start" x="202.1" y="-243.2" font-family="Arial" font-size="14.00" fill="#666666">[integer]</text>
<polygon fill="none" stroke="black" points="145.29,-200.2 145.29,-231 418.44,-231 418.44,-200.2 145.29,-200.2"/>
<text text-anchor="start" x="152.29" y="-212.4" font-family="Arial" font-size="14.00">username </text>
<text text-anchor="start" x="218.44" y="-212.4" font-family="Arial" font-size="14.00" fill="#666666">[varchar(50)]</text>
<polygon fill="none" stroke="black" points="145.29,-169.4 145.29,-200.2 418.44,-200.2 418.44,-169.4 145.29,-169.4"/>
<text text-anchor="start" x="152.29" y="-181.6" font-family="Arial" font-size="14.00">email </text>
<text text-anchor="start" x="189.64" y="-181.6" font-family="Arial" font-size="14.00" fill="#666666">[varchar(255)]</text>
<polygon fill="none" stroke="black" points="145.29,-138.6 145.29,-169.4 418.44,-169.4 418.44,-138.6 145.29,-138.6"/>
<text text-anchor="start" x="152.29" y="-150.8" font-family="Arial" font-size="14.00">full_name </text>
<text text-anchor="start" x="216.89" y="-150.8" font-family="Arial" font-size="14.00" fill="#666666">[varchar(255)]</text>
<polygon fill="none" stroke="black" points="145.29,-107.8 145.29,-138.6 418.44,-138.6 418.44,-107.8 145.29,-107.8"/>
<text text-anchor="start" x="152.29" y="-120" font-family="Arial" font-size="14.00">bio </text>
<text text-anchor="start" x="174.87" y="-120" font-family="Arial" font-size="14.00" fill="#666666">[text]</text>
<polygon fill="none" stroke="black" points="145.29,-77 145.29,-107.8 418.44,-107.8 418.44,-77 145.29,-77"/>
<text text-anchor="start" x="152.29" y="-89.2" font-family="Arial" font-size="14.00">created_at </text>
<text text-anchor="start" x="222.34" y="-89.2" font-family="Arial" font-size="14.00" fill="#666666">[timestamp without time zone]</text>
<polygon fill="none" stroke="black" points="145.29,-46.2 145.29,-77 418.44,-77 418.44,-46.2 145.29,-46.2"/>
<text text-anchor="start" x="152.29" y="-58.4" font-family="Arial" font-size="14.00">updated_at </text>
<text text-anchor="start" x="226.25" y="-58.4" font-family="Arial" font-size="14.00" fill="#666666">[timestamp without time zone]</text>
<polygon fill="none" stroke="black" stroke-width="3" points="143.79,-44.7 143.79,-298.9 419.94,-298.9 419.94,-44.7 143.79,-44.7"/>
</g>
<!-- public.posts -->
<g id="node2" class="node">
<title>public.posts</title>
<polygon fill="#efefef" stroke="none" points="145.29,-730.8 145.29,-766.4 418.44,-766.4 418.44,-730.8 145.29,-730.8"/>
<polygon fill="none" stroke="black" points="145.29,-730.8 145.29,-766.4 418.44,-766.4 418.44,-730.8 145.29,-730.8"/>
<text text-anchor="start" x="176.37" y="-744.2" font-family="Arial Bold" font-size="18.00">public.posts</text>
<text text-anchor="start" x="262.87" y="-744.2" font-family="Arial" font-size="14.00">    </text>
<text text-anchor="start" x="293.99" y="-744.2" font-family="Arial" font-size="14.00" fill="#666666">[BASE TABLE]</text>
<polygon fill="none" stroke="black" points="145.29,-700 145.29,-730.8 418.44,-730.8 418.44,-700 145.29,-700"/>
<text text-anchor="start" x="152.29" y="-712.2" font-family="Arial" font-size="14.00">post_id </text>
<text text-anchor="start" x="201.33" y="-712.2" font-family="Arial" font-size="14.00" fill="#666666">[integer]</text>
<polygon fill="none" stroke="black" points="145.29,-669.2 145.29,-700 418.44,-700 418.44,-669.2 145.29,-669.2"/>
<text text-anchor="start" x="152.29" y="-681.4" font-family="Arial" font-size="14.00">title </text>
<text text-anchor="start" x="177.97" y="-681.4" font-family="Arial" font-size="14.00" fill="#666666">[varchar(255)]</text>
<polygon fill="none" stroke="black" points="145.29,-638.4 145.29,-669.2 418.44,-669.2 418.44,-638.4 145.29,-638.4"/>
<text text-anchor="start" x="152.29" y="-650.6" font-family="Arial" font-size="14.00">content </text>
<text text-anchor="start" x="202.11" y="-650.6" font-family="Arial" font-size="14.00" fill="#666666">[text]</text>
<polygon fill="none" stroke="black" points="145.29,-607.6 145.29,-638.4 418.44,-638.4 418.44,-607.6 145.29,-607.6"/>
<text text-anchor="start" x="152.29" y="-619.8" font-family="Arial" font-size="14.00">author_id </text>
<text text-anchor="start" x="214.56" y="-619.8" font-family="Arial" font-size="14.00" fill="#666666">[integer]</text>
<polygon fill="none" stroke="black" points="145.29,-576.8 145.29,-607.6 418.44,-607.6 418.44,-576.8 145.29,-576.8"/>
<text text-anchor="start" x="152.29" y="-589" font-family="Arial" font-size="14.00">published </text>
<text text-anchor="start" x="216.12" y="-589" font-family="Arial" font-size="14.00" fill="#666666">[boolean]</text>
<polygon fill="none" stroke="black" points="145.29,-546 145.29,-576.8 418.44,-576.8 418.44,-546 145.29,-546"/>
<text text-anchor="start" x="152.29" y="-558.2" font-family="Arial" font-size="14.00">view_count </text>
<text text-anchor="start" x="226.23" y="-558.2" font-family="Arial" font-size="14.00" fill="#666666">[integer]</text>
<polygon fill="none" stroke="black" points="145.29,-515.2 145.29,-546 418.44,-546 418.44,-515.2 145.29,-515.2"/>
<text text-anchor="start" x="152.29" y="-527.4" font-family="Arial" font-size="14.00">created_at </text>
<text text-anchor="start" x="222.34" y="-527.4" font-family="Arial" font-size="14.00" fill="#666666">[timestamp without time zone]</text>
<polygon fill="none" stroke="black" points="145.29,-484.4 145.29,-515.2 418.44,-515.2 418.44,-484.4 145.29,-484.4"/>
<text text-anchor="start" x="152.29" y="-496.6" font-family="Arial" font-size="14.00">updated_at </text>
<text text-anchor="start" x="226.25" y="-496.6" font-family="Arial" font-size="14.00" fill="#666666">[timestamp without time zone]</text>
<polygon fill="none" stroke="black" points="145.29,-453.6 145.29,-484.4 418.44,-484.4 418.44,-453.6 145.29,-453.6"/>
<text text-anchor="start" x="152.29" y="-465.8" font-family="Arial" font-size="14.00">created_by </text>
<text text-anchor="start" x="225.45" y="-465.8" font-family="Arial" font-size="14.00" fill="#666666">[integer]</text>
<polygon fill="none" stroke="black" points="145.29,-422.8 145.29,-453.6 418.44,-453.6 418.44,-422.8 145.29,-422.8"/>
<text text-anchor="start" x="152.29" y="-435" font-family="Arial" font-size="14.00">updated_by </text>
<text text-anchor="start" x="229.36" y="-435" font-family="Arial" font-size="14.00" fill="#666666">[integer]</text>
</g>
<!-- public.posts&#45;&gt;public.users -->
<g id="edge1" class="edge">
<title>public.posts:author_id&#45;&gt;public.users:user_id</title>
<path fill="none" stroke="black" d="M427.85,-617.38C461.06,-570.54 458.26,-246.4 419.44,-246.4"/>
<polygon fill="black" stroke="black" points="428.03,-617.26 417.22,-619.07 423.6,-620.22 419.99,-622.63 419.99,-622.63 419.99,-622.63 423.6,-620.22 422.21,-626.56 428.03,-617.26"/>
<text text-anchor="start" x="44.56" y="-633" font-family="Arial" font-size="10.00">FOREIGN KEY (author_id) REFERENCES users(user_id) ON DELETE CASCADE</text>
</g>
<!-- public.posts&#45;&gt;public.users -->
<g id="edge2" class="edge">
<title>public.posts:created_by&#45;&gt;public.users:user_id</title>
<path fill="none" stroke="black" d="M429.14,-465.85C468.66,-438.8 465.43,-246.4 419.44,-246.4"/>
<polygon fill="black" stroke="black" points="429.27,-465.81 418.37,-464.62 424.19,-467.46 420.07,-468.79 420.07,-468.79 420.07,-468.79 424.19,-467.46 421.14,-473.18 429.27,-465.81"/>
<text text-anchor="start" x="286.9" y="-453" font-family="Arial" font-size="10.00">FOREIGN KEY (created_by) REFERENCES users(user_id)</text>
</g>
<!-- public.posts&#45;&gt;public.users -->
<g id="edge3" class="edge">
<title>public.posts:updated_by&#45;&gt;public.users:user_id</title>
<path fill="none" stroke="black" d="M282.69,-411.72C292.35,-357.03 384.91,-400.75 418.44,-343.6 440.3,-306.34 462.64,-246.4 419.44,-246.4"/>
<polygon fill="black" stroke="black" points="282.7,-411.5 277.41,-421.1 282.27,-416.82 281.92,-421.13 281.92,-421.13 281.92,-421.13 282.27,-416.82 286.38,-421.83 282.7,-411.5"/>
<text text-anchor="start" x="7" y="-405.8" font-family="Arial" font-size="10.00">FOREIGN KEY (updated_by) REFERENCES users(user_id)</text>
</g>
<!-- public.comments -->
<g id="node3" class="node">
<title>public.comments</title>
<polygon fill="#efefef" stroke="none" points="523.29,-669.2 523.29,-704.8 796.44,-704.8 796.44,-669.2 523.29,-669.2"/>
<polygon fill="none" stroke="black" points="523.29,-669.2 523.29,-704.8 796.44,-704.8 796.44,-669.2 523.29,-669.2"/>
<text text-anchor="start" x="535.88" y="-682.6" font-family="Arial Bold" font-size="18.00">public.comments</text>
<text text-anchor="start" x="659.36" y="-682.6" font-family="Arial" font-size="14.00">    </text>
<text text-anchor="start" x="690.48" y="-682.6" font-family="Arial" font-size="14.00" fill="#666666">[BASE TABLE]</text>
<polygon fill="none" stroke="black" points="523.29,-638.4 523.29,-669.2 796.44,-669.2 796.44,-638.4 523.29,-638.4"/>
<text text-anchor="start" x="530.29" y="-650.6" font-family="Arial" font-size="14.00">comment_id </text>
<text text-anchor="start" x="610.44" y="-650.6" font-family="Arial" font-size="14.00" fill="#666666">[integer]</text>
<polygon fill="none" stroke="black" points="523.29,-607.6 523.29,-638.4 796.44,-638.4 796.44,-607.6 523.29,-607.6"/>
<text text-anchor="start" x="530.29" y="-619.8" font-family="Arial" font-size="14.00">post_id </text>
<text text-anchor="start" x="579.33" y="-619.8" font-family="Arial" font-size="14.00" fill="#666666">[integer]</text>
<polygon fill="none" stroke="black" points="523.29,-576.8 523.29,-607.6 796.44,-607.6 796.44,-576.8 523.29,-576.8"/>
<text text-anchor="start" x="530.29" y="-589" font-family="Arial" font-size="14.00">author_id </text>
<text text-anchor="start" x="592.56" y="-589" font-family="Arial" font-size="14.00" fill="#666666">[integer]</text>
<polygon fill="none" stroke="black" points="523.29,-546 523.29,-576.8 796.44,-576.8 796.44,-546 523.29,-546"/>
<text text-anchor="start" x="530.29" y="-558.2" font-family="Arial" font-size="14.00">content </text>
<text text-anchor="start" x="580.11" y="-558.2" font-family="Arial" font-size="14.00" fill="#666666">[text]</text>
<polygon fill="none" stroke="black" points="523.29,-515.2 523.29,-546 796.44,-546 796.44,-515.2 523.29,-515.2"/>
<text text-anchor="start" x="530.29" y="-527.4" font-family="Arial" font-size="14.00">created_at </text>
<text text-anchor="start" x="600.34" y="-527.4" font-family="Arial" font-size="14.00" fill="#666666">[timestamp without time zone]</text>
<polygon fill="none" stroke="black" points="523.29,-484.4 523.29,-515.2 796.44,-515.2 796.44,-484.4 523.29,-484.4"/>
<text text-anchor="start" x="530.29" y="-496.6" font-family="Arial" font-size="14.00">updated_at </text>
<text text-anchor="start" x="604.25" y="-496.6" font-family="Arial" font-size="14.00" fill="#666666">[timestamp without time zone]</text>
</g>
<!-- public.comments&#45;&gt;public.users -->
<g id="edge4" class="edge">
<title>public.comments:author_id&#45;&gt;public.users:user_id</title>
<path fill="none" stroke="black" d="M512.43,-589.57C475.28,-568.19 484.29,-422.55 470.87,-379.6 451.94,-319.03 482.9,-246.4 419.44,-246.4"/>
<polygon fill="black" stroke="black" points="512.31,-589.54 520.81,-596.46 517.46,-590.91 521.65,-592.03 521.65,-592.03 521.65,-592.03 517.46,-590.91 523.13,-587.77 512.31,-589.54"/>
<text text-anchor="start" x="529.29" y="-602.2" font-family="Arial" font-size="10.00">FOREIGN KEY (author_id) REFERENCES users(user_id) ON DELETE CASCADE</text>
</g>
</g>
</svg>
