<?xml version="1.0" encoding="UTF-8" standalone="no"?>
<!DOCTYPE svg PUBLIC "-//W3C//DTD SVG 1.1//EN"
 "http://www.w3.org/Graphics/SVG/1.1/DTD/svg11.dtd">
<!-- Generated by graphviz version 12.1.2 (20240928.0832)
 -->
<!-- Title: blogdb Pages: 1 -->
<svg width="1151pt" height="1154pt"
 viewBox="0.00 0.00 1150.90 1154.40" xmlns="http://www.w3.org/2000/svg" xmlns:xlink="http://www.w3.org/1999/xlink">
<g id="graph0" class="graph" transform="scale(1 1) rotate(0) translate(4 1150.4)">
<title>blogdb</title>
<polygon fill="white" stroke="none" points="-4,4 -4,-1150.4 1146.9,-1150.4 1146.9,4 -4,4"/>
<!-- public.users -->
<g id="node1" class="node">
<title>public.users</title>
<polygon fill="#efefef" stroke="none" points="486.88,-258.8 486.88,-294.4 760.02,-294.4 760.02,-258.8 486.88,-258.8"/>
<polygon fill="none" stroke="black" points="486.88,-258.8 486.88,-294.4 760.02,-294.4 760.02,-258.8 486.88,-258.8"/>
<text text-anchor="start" x="517.96" y="-272.2" font-family="Arial Bold" font-size="18.00">public.users</text>
<text text-anchor="start" x="604.45" y="-272.2" font-family="Arial" font-size="14.00">    </text>
<text text-anchor="start" x="635.56" y="-272.2" font-family="Arial" font-size="14.00" fill="#666666">[BASE TABLE]</text>
<polygon fill="none" stroke="black" points="486.88,-228 486.88,-258.8 760.02,-258.8 760.02,-228 486.88,-228"/>
<text text-anchor="start" x="493.88" y="-240.2" font-family="Arial" font-size="14.00">user_id </text>
<text text-anchor="start" x="543.68" y="-240.2" font-family="Arial" font-size="14.00" fill="#666666">[integer]</text>
<polygon fill="none" stroke="black" points="486.88,-197.2 486.88,-228 760.02,-228 760.02,-197.2 486.88,-197.2"/>
<text text-anchor="start" x="493.88" y="-209.4" font-family="Arial" font-size="14.00">username </text>
<text text-anchor="start" x="560.02" y="-209.4" font-family="Arial" font-size="14.00" fill="#666666">[varchar(50)]</text>
<polygon fill="none" stroke="black" points="486.88,-166.4 486.88,-197.2 760.02,-197.2 760.02,-166.4 486.88,-166.4"/>
<text text-anchor="start" x="493.88" y="-178.6" font-family="Arial" font-size="14.00">email </text>
<text text-anchor="start" x="531.22" y="-178.6" font-family="Arial" font-size="14.00" fill="#666666">[varchar(255)]</text>
<polygon fill="none" stroke="black" points="486.88,-135.6 486.88,-166.4 760.02,-166.4 760.02,-135.6 486.88,-135.6"/>
<text text-anchor="start" x="493.88" y="-147.8" font-family="Arial" font-size="14.00">full_name </text>
<text text-anchor="start" x="558.47" y="-147.8" font-family="Arial" font-size="14.00" fill="#666666">[varchar(255)]</text>
<polygon fill="none" stroke="black" points="486.88,-104.8 486.88,-135.6 760.02,-135.6 760.02,-104.8 486.88,-104.8"/>
<text text-anchor="start" x="493.88" y="-117" font-family="Arial" font-size="14.00">bio </text>
<text text-anchor="start" x="516.45" y="-117" font-family="Arial" font-size="14.00" fill="#666666">[text]</text>
<polygon fill="none" stroke="black" points="486.88,-74 486.88,-104.8 760.02,-104.8 760.02,-74 486.88,-74"/>
<text text-anchor="start" x="493.88" y="-86.2" font-family="Arial" font-size="14.00">created_at </text>
<text text-anchor="start" x="563.92" y="-86.2" font-family="Arial" font-size="14.00" fill="#666666">[timestamp without time zone]</text>
<polygon fill="none" stroke="black" points="486.88,-43.2 486.88,-74 760.02,-74 760.02,-43.2 486.88,-43.2"/>
<text text-anchor="start" x="493.88" y="-55.4" font-family="Arial" font-size="14.00">updated_at </text>
<text text-anchor="start" x="567.83" y="-55.4" font-family="Arial" font-size="14.00" fill="#666666">[timestamp without time zone]</text>
</g>
<!-- public.posts -->
<g id="node2" class="node">
<title>public.posts</title>
<polygon fill="#efefef" stroke="none" points="486.88,-724.8 486.88,-760.4 760.02,-760.4 760.02,-724.8 486.88,-724.8"/>
<polygon fill="none" stroke="black" points="486.88,-724.8 486.88,-760.4 760.02,-760.4 760.02,-724.8 486.88,-724.8"/>
<text text-anchor="start" x="517.95" y="-738.2" font-family="Arial Bold" font-size="18.00">public.posts</text>
<text text-anchor="start" x="604.45" y="-738.2" font-family="Arial" font-size="14.00">    </text>
<text text-anchor="start" x="635.57" y="-738.2" font-family="Arial" font-size="14.00" fill="#666666">[BASE TABLE]</text>
<polygon fill="none" stroke="black" points="486.88,-694 486.88,-724.8 760.02,-724.8 760.02,-694 486.88,-694"/>
<text text-anchor="start" x="493.88" y="-706.2" font-family="Arial" font-size="14.00">post_id </text>
<text text-anchor="start" x="542.91" y="-706.2" font-family="Arial" font-size="14.00" fill="#666666">[integer]</text>
<polygon fill="none" stroke="black" points="486.88,-663.2 486.88,-694 760.02,-694 760.02,-663.2 486.88,-663.2"/>
<text text-anchor="start" x="493.88" y="-675.4" font-family="Arial" font-size="14.00">title </text>
<text text-anchor="start" x="519.55" y="-675.4" font-family="Arial" font-size="14.00" fill="#666666">[varchar(255)]</text>
<polygon fill="none" stroke="black" points="486.88,-632.4 486.88,-663.2 760.02,-663.2 760.02,-632.4 486.88,-632.4"/>
<text text-anchor="start" x="493.88" y="-644.6" font-family="Arial" font-size="14.00">content </text>
<text text-anchor="start" x="543.69" y="-644.6" font-family="Arial" font-size="14.00" fill="#666666">[text]</text>
<polygon fill="none" stroke="black" points="486.88,-601.6 486.88,-632.4 760.02,-632.4 760.02,-601.6 486.88,-601.6"/>
<text text-anchor="start" x="493.88" y="-613.8" font-family="Arial" font-size="14.00">author_id </text>
<text text-anchor="start" x="556.14" y="-613.8" font-family="Arial" font-size="14.00" fill="#666666">[integer]</text>
<polygon fill="none" stroke="black" points="486.88,-570.8 486.88,-601.6 760.02,-601.6 760.02,-570.8 486.88,-570.8"/>
<text text-anchor="start" x="493.88" y="-583" font-family="Arial" font-size="14.00">published </text>
<text text-anchor="start" x="557.7" y="-583" font-family="Arial" font-size="14.00" fill="#666666">[boolean]</text>
<polygon fill="none" stroke="black" points="486.88,-540 486.88,-570.8 760.02,-570.8 760.02,-540 486.88,-540"/>
<text text-anchor="start" x="493.88" y="-552.2" font-family="Arial" font-size="14.00">view_count </text>
<text text-anchor="start" x="567.81" y="-552.2" font-family="Arial" font-size="14.00" fill="#666666">[integer]</text>
<polygon fill="none" stroke="black" points="486.88,-509.2 486.88,-540 760.02,-540 760.02,-509.2 486.88,-509.2"/>
<text text-anchor="start" x="493.88" y="-521.4" font-family="Arial" font-size="14.00">created_at </text>
<text text-anchor="start" x="563.92" y="-521.4" font-family="Arial" font-size="14.00" fill="#666666">[timestamp without time zone]</text>
<polygon fill="none" stroke="black" points="486.88,-478.4 486.88,-509.2 760.02,-509.2 760.02,-478.4 486.88,-478.4"/>
<text text-anchor="start" x="493.88" y="-490.6" font-family="Arial" font-size="14.00">updated_at </text>
<text text-anchor="start" x="567.83" y="-490.6" font-family="Arial" font-size="14.00" fill="#666666">[timestamp without time zone]</text>
<polygon fill="none" stroke="black" points="486.88,-447.6 486.88,-478.4 760.02,-478.4 760.02,-447.6 486.88,-447.6"/>
<text text-anchor="start" x="493.88" y="-459.8" font-family="Arial" font-size="14.00">created_by </text>
<text text-anchor="start" x="567.03" y="-459.8" font-family="Arial" font-size="14.00" fill="#666666">[integer]</text>
<polygon fill="none" stroke="black" points="486.88,-416.8 486.88,-447.6 760.02,-447.6 760.02,-416.8 486.88,-416.8"/>
<text text-anchor="start" x="493.88" y="-429" font-family="Arial" font-size="14.00">updated_by </text>
<text text-anchor="start" x="570.94" y="-429" font-family="Arial" font-size="14.00" fill="#666666">[integer]</text>
</g>
<!-- public.posts&#45;&gt;public.users -->
<g id="edge1" class="edge">
<title>public.posts:author_id&#45;&gt;public.users:user_id</title>
<path fill="none" stroke="black" d="M771.26,-614.99C843.89,-585.58 840.47,-243.4 761.02,-243.4"/>
<polygon fill="black" stroke="black" points="771.16,-615.01 760.48,-612.52 765.93,-616.04 761.68,-616.87 761.68,-616.87 761.68,-616.87 765.93,-616.04 762.21,-621.35 771.16,-615.01"/>
<text text-anchor="start" x="768.02" y="-627" font-family="Arial" font-size="10.00">FOREIGN KEY (author_id) REFERENCES users(user_id) ON DELETE CASCADE</text>
</g>
<!-- public.posts&#45;&gt;public.users -->
<g id="edge2" class="edge">
<title>public.posts:created_by&#45;&gt;public.users:user_id</title>
<path fill="none" stroke="black" d="M771.22,-462.16C858.49,-447.42 855.09,-243.4 761.02,-243.4"/>
<polygon fill="black" stroke="black" points="771.32,-462.15 760.98,-458.49 766,-462.59 761.69,-462.95 761.69,-462.95 761.69,-462.95 766,-462.59 761.72,-467.46 771.32,-462.15"/>
<text text-anchor="start" x="768.02" y="-473" font-family="Arial" font-size="10.00">FOREIGN KEY (created_by) REFERENCES users(user_id)</text>
</g>
<!-- public.posts&#45;&gt;public.users -->
<g id="edge3" class="edge">
<title>public.posts:updated_by&#45;&gt;public.users:user_id</title>
<path fill="none" stroke="black" d="M624.27,-405.72C633.94,-351.03 726.49,-394.74 760.02,-337.6 781.21,-301.49 802.89,-243.4 761.02,-243.4"/>
<polygon fill="black" stroke="black" points="624.29,-405.5 618.99,-415.1 623.85,-410.82 623.5,-415.13 623.5,-415.13 623.5,-415.13 623.85,-410.82 627.96,-415.83 624.29,-405.5"/>
<text text-anchor="start" x="630.45" y="-425.8" font-family="Arial" font-size="10.00">FOREIGN KEY (updated_by) REFERENCES users(user_id)</text>
</g>
<!-- public.comments -->
<g id="node3" class="node">
<title>public.comments</title>
<polygon fill="#efefef" stroke="none" points="382.88,-1067.6 382.88,-1103.2 656.02,-1103.2 656.02,-1067.6 382.88,-1067.6"/>
<polygon fill="none" stroke="black" points="382.88,-1067.6 382.88,-1103.2 656.02,-1103.2 656.02,-1067.6 382.88,-1067.6"/>
<text text-anchor="start" x="395.46" y="-1081" font-family="Arial Bold" font-size="18.00">public.comments</text>
<text text-anchor="start" x="518.94" y="-1081" font-family="Arial" font-size="14.00">    </text>
<text text-anchor="start" x="550.06" y="-1081" font-family="Arial" font-size="14.00" fill="#666666">[BASE TABLE]</text>
<polygon fill="none" stroke="black" points="382.88,-1036.8 382.88,-1067.6 656.02,-1067.6 656.02,-1036.8 382.88,-1036.8"/>
<text text-anchor="start" x="389.88" y="-1049" font-family="Arial" font-size="14.00">comment_id </text>
<text text-anchor="start" x="470.02" y="-1049" font-family="Arial" font-size="14.00" fill="#666666">[integer]</text>
<polygon fill="none" stroke="black" points="382.88,-1006 382.88,-1036.8 656.02,-1036.8 656.02,-1006 382.88,-1006"/>
<text text-anchor="start" x="389.88" y="-1018.2" font-family="Arial" font-size="14.00">post_id </text>
<text text-anchor="start" x="438.91" y="-1018.2" font-family="Arial" font-size="14.00" fill="#666666">[integer]</text>
<polygon fill="none" stroke="black" points="382.88,-975.2 382.88,-1006 656.02,-1006 656.02,-975.2 382.88,-975.2"/>
<text text-anchor="start" x="389.88" y="-987.4" font-family="Arial" font-size="14.00">author_id </text>
<text text-anchor="start" x="452.14" y="-987.4" font-family="Arial" font-size="14.00" fill="#666666">[integer]</text>
<polygon fill="none" stroke="black" points="382.88,-944.4 382.88,-975.2 656.02,-975.2 656.02,-944.4 382.88,-944.4"/>
<text text-anchor="start" x="389.88" y="-956.6" font-family="Arial" font-size="14.00">content </text>
<text text-anchor="start" x="439.69" y="-956.6" font-family="Arial" font-size="14.00" fill="#666666">[text]</text>
<polygon fill="none" stroke="black" points="382.88,-913.6 382.88,-944.4 656.02,-944.4 656.02,-913.6 382.88,-913.6"/>
<text text-anchor="start" x="389.88" y="-925.8" font-family="Arial" font-size="14.00">created_at </text>
<text text-anchor="start" x="459.92" y="-925.8" font-family="Arial" font-size="14.00" fill="#666666">[timestamp without time zone]</text>
<polygon fill="none" stroke="black" points="382.88,-882.8 382.88,-913.6 656.02,-913.6 656.02,-882.8 382.88,-882.8"/>
<text text-anchor="start" x="389.88" y="-895" font-family="Arial" font-size="14.00">updated_at </text>
<text text-anchor="start" x="463.83" y="-895" font-family="Arial" font-size="14.00" fill="#666666">[timestamp without time zone]</text>
</g>
<!-- public.comments&#45;&gt;public.users -->
<g id="edge4" class="edge">
<title>public.comments:author_id&#45;&gt;public.users:user_id</title>
<path fill="none" stroke="black" d="M371.9,-989.67C218.52,-960.27 321.67,-243.4 485.88,-243.4"/>
<polygon fill="black" stroke="black" points="371.59,-989.64 381.13,-995.05 376.9,-990.14 381.21,-990.54 381.21,-990.54 381.21,-990.54 376.9,-990.14 381.96,-986.09 371.59,-989.64"/>
<text text-anchor="start" x="7" y="-1000.6" font-family="Arial" font-size="10.00">FOREIGN KEY (author_id) REFERENCES users(user_id) ON DELETE CASCADE</text>
</g>
<!-- public.comments&#45;&gt;public.posts -->
<g id="edge5" class="edge">
<title>public.comments:post_id&#45;&gt;public.posts:post_id</title>
<path fill="none" stroke="black" d="M667.24,-1020.69C735.01,-1010.81 704.74,-899.45 656.02,-839.6 607.49,-780 535.55,-863.08 486.88,-803.6 460.36,-771.2 444.01,-709.4 485.88,-709.4"/>
<polygon fill="black" stroke="black" points="667.33,-1020.69 657.04,-1016.89 662.01,-1021.06 657.69,-1021.35 657.69,-1021.35 657.69,-1021.35 662.01,-1021.06 657.66,-1025.87 667.33,-1020.69"/>
<text text-anchor="start" x="664.02" y="-1031.4" font-family="Arial" font-size="10.00">FOREIGN KEY (post_id) REFERENCES posts(post_id) ON DELETE CASCADE</text>
</g>
</g>
</svg>
